<svg width="95" height="44" viewBox="0 0 95 44" fill="none" xmlns="http://www.w3.org/2000/svg">
<path d="M2.8562 0.238016C3.58612 0.238016 4.19703 0.333223 4.68893 0.523637C5.18083 0.714049 5.57752 0.96 5.87901 1.26149C6.1805 1.56298 6.39471 1.90413 6.52165 2.28496C6.66446 2.64992 6.73587 3.00694 6.73587 3.35603C6.73587 3.94314 6.58512 4.52232 6.28364 5.09355C5.98215 5.66479 5.43471 6.13289 4.64132 6.49785V6.68827C5.02215 6.86281 5.39504 7.08496 5.76 7.35471C6.12496 7.6086 6.44231 7.92595 6.71207 8.30678C6.99769 8.6876 7.22777 9.13984 7.40232 9.66347C7.57686 10.1871 7.66413 10.806 7.66413 11.52C7.66413 12.1864 7.56893 12.845 7.37851 13.4955C7.20397 14.1302 6.91835 14.7015 6.52165 15.2093C6.12496 15.717 5.62512 16.1296 5.02215 16.4469C4.41917 16.7484 3.69719 16.8992 2.8562 16.8992H0V16.6612C0.0952066 16.5342 0.198347 16.3359 0.309422 16.0661C0.420496 15.7964 0.476033 15.4314 0.476033 14.9712V2.16595C0.476033 1.70579 0.420496 1.34083 0.309422 1.07107C0.198347 0.801322 0.0952066 0.602975 0 0.476033V0.238016H2.8562ZM2.8562 6.18843C3.3005 6.17256 3.64959 6.09322 3.90347 5.95041C4.15736 5.79174 4.34777 5.58545 4.47471 5.33157C4.61752 5.07769 4.70479 4.78413 4.73653 4.45091C4.76827 4.10182 4.78413 3.73686 4.78413 3.35603C4.78413 2.97521 4.7524 2.63405 4.68893 2.33256C4.64132 2.03107 4.54612 1.77719 4.40331 1.57091C4.2605 1.36463 4.06215 1.21388 3.80826 1.11868C3.57025 1.0076 3.25289 0.952067 2.8562 0.952067V6.18843ZM2.8562 16.1851C3.36397 16.1851 3.76066 16.0582 4.04628 15.8043C4.34777 15.5504 4.56992 15.2093 4.71273 14.7808C4.85554 14.3524 4.94281 13.8605 4.97455 13.3051C5.00628 12.7339 5.02215 12.1388 5.02215 11.52C5.02215 10.9012 5.00628 10.3141 4.97455 9.75868C4.94281 9.20331 4.85554 8.71141 4.71273 8.28298C4.56992 7.85455 4.34777 7.52132 4.04628 7.28331C3.76066 7.02942 3.36397 6.90248 2.8562 6.90248V16.1851Z" fill="white"/>
<path d="M16.0152 3.80827H15.7772C15.6502 2.8562 15.4439 2.10248 15.1583 1.54711C14.8727 0.991736 14.4284 0.71405 13.8254 0.71405C13.3176 0.71405 12.921 0.920331 12.6353 1.33289C12.3497 1.74545 12.1355 2.30876 11.9927 3.02281C11.8499 3.73686 11.7626 4.56992 11.7309 5.52198C11.6991 6.47405 11.6833 7.48959 11.6833 8.5686C11.6833 9.6476 11.6991 10.6631 11.7309 11.6152C11.7626 12.5673 11.8499 13.4003 11.9927 14.1144C12.1355 14.8284 12.3497 15.3917 12.6353 15.8043C12.921 16.2169 13.3176 16.4231 13.8254 16.4231C14.4284 16.4231 14.8727 16.1455 15.1583 15.5901C15.4439 15.0347 15.6502 14.281 15.7772 13.3289H16.0152L17.1576 14.9712C16.7768 15.5742 16.3087 16.0899 15.7533 16.5183C15.2138 16.9309 14.5712 17.1372 13.8254 17.1372C13.0003 17.1372 12.2862 16.9071 11.6833 16.4469C11.0803 15.9868 10.5805 15.3679 10.1838 14.5904C9.80293 13.797 9.51731 12.8846 9.3269 11.8532C9.15236 10.806 9.06508 9.71107 9.06508 8.5686C9.06508 7.42612 9.15236 6.33917 9.3269 5.30777C9.51731 4.2605 9.80293 3.3481 10.1838 2.57058C10.5805 1.77719 11.0803 1.15041 11.6833 0.690248C12.2862 0.230083 13.0003 0 13.8254 0C14.5553 0 15.198 0.214215 15.7533 0.642645C16.3087 1.05521 16.7768 1.56298 17.1576 2.16595L16.0152 3.80827Z" fill="white"/>
<path d="M23.0045 16.1851C23.4647 16.1851 23.8296 16.1296 24.0994 16.0185C24.3691 15.9074 24.5675 15.8043 24.6944 15.7091H24.9324L24.6706 16.8992H18.4822V16.6612C18.5774 16.5342 18.6805 16.3359 18.7916 16.0661C18.9027 15.7964 18.9582 15.4314 18.9582 14.9712V2.16595C18.9582 1.70579 18.9106 1.33289 18.8154 1.04727C18.7202 0.745785 18.6091 0.555371 18.4822 0.476033V0.238016H23.9566L24.2184 1.4281H23.9804C23.8534 1.33289 23.6551 1.22975 23.3853 1.11868C23.1156 1.0076 22.7506 0.952067 22.2904 0.952067H21.3384V4.99835H21.386C21.8461 4.99835 22.2111 4.94281 22.4809 4.83174C22.7506 4.72066 22.9489 4.61752 23.0759 4.52231H23.3139V6.06942H23.0997C22.9727 5.97422 22.7744 5.87108 22.5047 5.76C22.2349 5.64893 21.8699 5.59339 21.4098 5.59339H21.3384V16.1851H23.0045Z" fill="white"/>
<path d="M28.5291 1.90413C28.5767 1.53917 28.5053 1.24562 28.3149 1.02347C28.1244 0.785454 27.9182 0.642644 27.696 0.595041V0.238016H30.7426L33.1466 14.3524C33.2418 14.765 33.3291 15.1061 33.4084 15.3759C33.4878 15.6456 33.5671 15.8678 33.6464 16.0423C33.7258 16.201 33.813 16.3279 33.9082 16.4231C34.0035 16.5184 34.1304 16.5977 34.2891 16.6612V16.8992H30.3856V16.6612C30.4332 16.5977 30.4967 16.5263 30.576 16.4469C30.6554 16.3676 30.7188 16.2645 30.7664 16.1375C30.8299 15.9947 30.8696 15.8281 30.8854 15.6377C30.9172 15.4473 30.8934 15.2093 30.814 14.9236L29.0051 4.21289H28.9099L27.1962 14.9712C27.1327 15.3203 27.1248 15.598 27.1724 15.8043C27.2358 16.0106 27.3231 16.1693 27.4342 16.2803C27.5453 16.3755 27.6643 16.4549 27.7912 16.5183C27.934 16.566 28.053 16.6136 28.1482 16.6612V16.8992H25.173V16.6612C25.3635 16.5818 25.5301 16.5025 25.6729 16.4231C25.8316 16.3438 25.9585 16.2248 26.0537 16.0661C26.1648 15.9074 26.26 15.6932 26.3393 15.4235C26.4345 15.1537 26.5139 14.7967 26.5773 14.3524L28.5291 1.90413Z" fill="white"/>
<path d="M39.9027 16.1851C40.3629 16.1851 40.7279 16.1296 40.9976 16.0185C41.2674 15.9074 41.4657 15.8043 41.5926 15.7091H41.8307L41.5688 16.8992H35.3804V16.6612C35.4756 16.5342 35.5788 16.3359 35.6898 16.0661C35.8009 15.7964 35.8564 15.4314 35.8564 14.9712V2.16595C35.8564 1.70579 35.8088 1.33289 35.7136 1.04727C35.6184 0.745785 35.5074 0.555371 35.3804 0.476033V0.238016H40.8548L41.1166 1.4281H40.8786C40.7517 1.33289 40.5533 1.22975 40.2836 1.11868C40.0138 1.0076 39.6488 0.952067 39.1887 0.952067H38.2366V4.99835H38.2842C38.7444 4.99835 39.1093 4.94281 39.3791 4.83174C39.6488 4.72066 39.8472 4.61752 39.9741 4.52231H40.2122V6.06942H39.9979C39.871 5.97422 39.6726 5.87108 39.4029 5.76C39.1331 5.64893 38.7682 5.59339 38.308 5.59339H38.2366V16.1851H39.9027Z" fill="white"/>
<path d="M45.8805 5.7124V14.9712C45.8805 15.4314 45.936 15.7964 46.0471 16.0661C46.1582 16.3359 46.2613 16.5342 46.3565 16.6612V16.8992H43.0243V16.6612C43.1195 16.5342 43.2226 16.3359 43.3337 16.0661C43.4448 15.7964 43.5003 15.4314 43.5003 14.9712V2.16595C43.5003 1.70579 43.4448 1.34083 43.3337 1.07107C43.2226 0.801322 43.1195 0.602975 43.0243 0.476033V0.238016H46.3565V0.476033C46.2613 0.602975 46.1582 0.801322 46.0471 1.07107C45.936 1.34083 45.8805 1.70579 45.8805 2.16595V4.99835H48.4987V2.16595C48.4987 1.70579 48.4431 1.34083 48.3321 1.07107C48.221 0.801322 48.1178 0.602975 48.0226 0.476033V0.238016H51.3549V0.476033C51.2597 0.602975 51.1565 0.801322 51.0454 1.07107C50.9344 1.34083 50.8788 1.70579 50.8788 2.16595V14.9712C50.8788 15.4314 50.9344 15.7964 51.0454 16.0661C51.1565 16.3359 51.2597 16.5342 51.3549 16.6612V16.8992H48.0226V16.6612C48.1178 16.5342 48.221 16.3359 48.3321 16.0661C48.4431 15.7964 48.4987 15.4314 48.4987 14.9712V5.7124H45.8805Z" fill="white"/>
<path d="M56.1077 5.7124V14.9712C56.1077 15.4314 56.1633 15.7964 56.2744 16.0661C56.3854 16.3359 56.4886 16.5342 56.5838 16.6612V16.8992H53.2516V16.6612C53.3468 16.5342 53.4499 16.3359 53.561 16.0661C53.672 15.7964 53.7276 15.4314 53.7276 14.9712V2.16595C53.7276 1.70579 53.672 1.34083 53.561 1.07107C53.4499 0.801322 53.3468 0.602975 53.2516 0.476033V0.238016H56.5838V0.476033C56.4886 0.602975 56.3854 0.801322 56.2744 1.07107C56.1633 1.34083 56.1077 1.70579 56.1077 2.16595V4.99835H58.7259V2.16595C58.7259 1.70579 58.6704 1.34083 58.5593 1.07107C58.4482 0.801322 58.3451 0.602975 58.2499 0.476033V0.238016H61.5821V0.476033C61.4869 0.602975 61.3838 0.801322 61.2727 1.07107C61.1616 1.34083 61.1061 1.70579 61.1061 2.16595V14.9712C61.1061 15.4314 61.1616 15.7964 61.2727 16.0661C61.3838 16.3359 61.4869 16.5342 61.5821 16.6612V16.8992H58.2499V16.6612C58.3451 16.5342 58.4482 16.3359 58.5593 16.0661C58.6704 15.7964 58.7259 15.4314 58.7259 14.9712V5.7124H56.1077Z" fill="white"/>
<path d="M62.5258 16.6612C62.7162 16.5818 62.8829 16.5025 63.0257 16.4231C63.1843 16.3438 63.3113 16.2248 63.4065 16.0661C63.5176 15.9074 63.6128 15.6932 63.6921 15.4235C63.7873 15.1537 63.8667 14.7967 63.9301 14.3524L65.8819 1.88033C65.9295 1.51537 65.8581 1.22182 65.6676 0.999669C65.4772 0.777521 65.271 0.642644 65.0488 0.595041V0.238016H68.0954L70.4994 14.3524C70.5946 14.765 70.6819 15.1061 70.7612 15.3759C70.8405 15.6456 70.9199 15.8678 70.9992 16.0423C71.0786 16.201 71.1658 16.3279 71.261 16.4231C71.3562 16.5184 71.4832 16.5977 71.6419 16.6612V16.8992H67.7384V16.6612C67.786 16.5977 67.8495 16.5263 67.9288 16.4469C68.0081 16.3676 68.0716 16.2645 68.1192 16.1375C68.1827 15.9947 68.2224 15.8281 68.2382 15.6377C68.27 15.4473 68.2462 15.2093 68.1668 14.9236L67.5004 10.9488H65.1916L64.549 14.9712C64.4855 15.3203 64.4776 15.598 64.5252 15.8043C64.5886 16.0106 64.6759 16.1693 64.787 16.2803C64.8981 16.3755 65.0171 16.4549 65.144 16.5183C65.2868 16.566 65.4058 16.6136 65.501 16.6612V16.8992H62.5258V16.6612ZM67.3814 10.2347L66.3579 4.21289H66.2627L65.3106 10.2347H67.3814Z" fill="white"/>
<path d="M73.459 15.9471L73.4352 13.3289C73.4352 12.8688 73.451 12.4007 73.4828 11.9246C73.5304 11.4486 73.6256 10.9964 73.7684 10.5679C73.9112 10.1395 74.1096 9.75075 74.3634 9.40165C74.6332 9.05256 74.9902 8.77488 75.4345 8.5686V8.52099C74.6887 8.1719 74.1413 7.67207 73.7922 7.02149C73.459 6.35504 73.2924 5.56959 73.2924 4.66513C73.2924 3.99868 73.3796 3.3957 73.5542 2.8562C73.7446 2.31669 74.0381 1.85653 74.4348 1.4757C74.8315 1.07901 75.3314 0.777521 75.9343 0.571239C76.5373 0.349091 77.2593 0.238016 78.1003 0.238016H80.9565V0.476033C80.8613 0.602975 80.7581 0.801322 80.6471 1.07107C80.536 1.34083 80.4805 1.70579 80.4805 2.16595V14.9712C80.4805 15.4314 80.536 15.7964 80.6471 16.0661C80.7581 16.3359 80.8613 16.5342 80.9565 16.6612V16.8992H77.6243V16.6612C77.7195 16.5342 77.8226 16.3359 77.9337 16.0661C78.0448 15.7964 78.1003 15.4314 78.1003 14.9712V9.04463C77.5449 9.0605 77.1165 9.20331 76.815 9.47306C76.5294 9.72694 76.3152 10.0602 76.1724 10.4727C76.0454 10.8694 75.974 11.3217 75.9581 11.8294C75.9423 12.3213 75.9343 12.8212 75.9343 13.3289V15.2093C75.9343 15.844 75.736 16.3121 75.3393 16.6136C74.9426 16.915 74.4983 17.0737 74.0064 17.0896C73.5304 17.1213 73.094 17.0341 72.6973 16.8278C72.3006 16.6056 72.1023 16.3121 72.1023 15.9471H72.8163C72.8163 16.0423 72.8481 16.1217 72.9115 16.1851C72.975 16.2327 73.0464 16.2565 73.1257 16.2565C73.221 16.2565 73.3003 16.2327 73.3638 16.1851C73.4272 16.1217 73.459 16.0423 73.459 15.9471ZM78.1003 8.33058V0.952067C77.5925 0.952067 77.1879 1.03141 76.8864 1.19008C76.6008 1.33289 76.3866 1.56298 76.2438 1.88033C76.101 2.18182 76.0137 2.57058 75.9819 3.04661C75.9502 3.50678 75.9343 4.04628 75.9343 4.66513C75.9343 5.28397 75.9502 5.82347 75.9819 6.28364C76.0137 6.7438 76.101 7.12463 76.2438 7.42612C76.3866 7.7276 76.6008 7.95769 76.8864 8.11636C77.1879 8.25917 77.5925 8.33058 78.1003 8.33058Z" fill="white"/>
<path d="M0 40.6612C0.0952066 40.5342 0.198347 40.3359 0.309422 40.0661C0.420496 39.7964 0.476033 39.4314 0.476033 38.9712V26.166C0.476033 25.7058 0.420496 25.3408 0.309422 25.0711C0.198347 24.8013 0.0952066 24.603 0 24.476V24.238H8.33058V24.476C8.23537 24.603 8.13223 24.8013 8.02116 25.0711C7.91008 25.3408 7.85455 25.7058 7.85455 26.166V38.9712C7.85455 39.4314 7.91008 39.7964 8.02116 40.0661C8.13223 40.3359 8.23537 40.5342 8.33058 40.6612V40.8992H4.99835V40.6612C5.09355 40.5342 5.19669 40.3359 5.30777 40.0661C5.41884 39.7964 5.47438 39.4314 5.47438 38.9712V24.9521H2.8562V38.9712C2.8562 39.4314 2.91174 39.7964 3.02281 40.0661C3.13388 40.3359 3.23703 40.5342 3.33223 40.6612V40.8992H0V40.6612Z" fill="white"/>
<path d="M13.0835 38.9712C13.0835 39.4314 13.139 39.7964 13.2501 40.0661C13.3612 40.3359 13.4643 40.5342 13.5595 40.6612V40.8992H10.2273V40.6612C10.3225 40.5342 10.4256 40.3359 10.5367 40.0661C10.6478 39.7964 10.7033 39.4314 10.7033 38.9712V26.166C10.7033 25.7058 10.6478 25.3408 10.5367 25.0711C10.4256 24.8013 10.3225 24.603 10.2273 24.476V24.238H13.0835C13.9245 24.238 14.6464 24.3967 15.2494 24.7141C15.8524 25.0155 16.3522 25.4202 16.7489 25.9279C17.1456 26.4357 17.4312 27.0149 17.6058 27.6655C17.7962 28.3002 17.8914 28.9507 17.8914 29.6172C17.8914 30.2678 17.7962 30.9183 17.6058 31.5689C17.4312 32.2036 17.1456 32.7749 16.7489 33.2826C16.3522 33.7745 15.8524 34.1792 15.2494 34.4965C14.6464 34.798 13.9245 34.9488 13.0835 34.9488V38.9712ZM13.0835 34.2347C13.5912 34.2347 13.9879 34.1157 14.2736 33.8777C14.575 33.6238 14.7972 33.2826 14.94 32.8542C15.0828 32.4258 15.1701 31.9339 15.2018 31.3785C15.2336 30.8231 15.2494 30.236 15.2494 29.6172C15.2494 28.9983 15.2336 28.4112 15.2018 27.8559C15.1701 27.2846 15.0828 26.7848 14.94 26.3564C14.7972 25.9279 14.575 25.5868 14.2736 25.3329C13.9879 25.079 13.5912 24.9521 13.0835 24.9521V34.2347Z" fill="white"/>
<path d="M17.5491 40.6612C17.7395 40.5818 17.9061 40.5025 18.0489 40.4231C18.2076 40.3438 18.3345 40.2248 18.4297 40.0661C18.5408 39.9074 18.636 39.6932 18.7154 39.4235C18.8106 39.1537 18.8899 38.7967 18.9534 38.3524L20.9051 25.8803C20.9527 25.5154 20.8813 25.2218 20.6909 24.9997C20.5005 24.7775 20.2942 24.6426 20.072 24.595V24.238H23.1187L25.5226 38.3524C25.6178 38.765 25.7051 39.1061 25.7844 39.3759C25.8638 39.6456 25.9431 39.8678 26.0225 40.0423C26.1018 40.201 26.1891 40.3279 26.2843 40.4231C26.3795 40.5183 26.5064 40.5977 26.6651 40.6612V40.8992H22.7616V40.6612C22.8092 40.5977 22.8727 40.5263 22.952 40.4469C23.0314 40.3676 23.0949 40.2645 23.1425 40.1375C23.2059 39.9947 23.2456 39.8281 23.2615 39.6377C23.2932 39.4473 23.2694 39.2093 23.1901 38.9236L22.5236 34.9488H20.2149L19.5722 38.9712C19.5087 39.3203 19.5008 39.598 19.5484 39.8043C19.6119 40.0106 19.6992 40.1693 19.8102 40.2803C19.9213 40.3755 20.0403 40.4549 20.1673 40.5183C20.3101 40.566 20.4291 40.6136 20.5243 40.6612V40.8992H17.5491V40.6612ZM22.4046 34.2347L21.3811 28.2129H21.2859L20.3339 34.2347H22.4046Z" fill="white"/>
<path d="M31.0822 29.9504C31.3995 29.9345 31.6613 29.8473 31.8676 29.6886C32.0739 29.5141 32.2405 29.2998 32.3675 29.046C32.4944 28.7762 32.5817 28.4826 32.6293 28.1653C32.6928 27.8321 32.7245 27.4988 32.7245 27.1656C32.7245 26.7531 32.6848 26.3643 32.6055 25.9993C32.5261 25.6185 32.3754 25.317 32.1532 25.0949C31.9311 24.8569 31.6217 24.7379 31.225 24.7379C30.622 24.7379 30.1222 24.9917 29.7255 25.4995C29.3447 25.9914 29.1463 26.761 29.1304 27.8083H28.8924L27.7499 26.166C28.0673 25.4202 28.5513 24.8727 29.2018 24.5236C29.8524 24.1745 30.5268 24 31.225 24C31.7962 24 32.2881 24.0873 32.7007 24.2618C33.1291 24.4364 33.4782 24.6744 33.748 24.9759C34.0336 25.2615 34.2399 25.5947 34.3668 25.9755C34.5096 26.3564 34.5889 26.7451 34.6048 27.1418C34.6366 27.7448 34.5255 28.324 34.2716 28.8793C34.0336 29.4188 33.5655 29.8473 32.8673 30.1646V30.4026C33.4703 30.5931 33.9701 30.8549 34.3668 31.1881C34.7635 31.5213 35.0808 31.9101 35.3189 32.3544C35.5569 32.7828 35.7235 33.2509 35.8187 33.7587C35.9139 34.2506 35.9694 34.7584 35.9853 35.282C36.0012 36.123 35.906 36.9005 35.6997 37.6145C35.4934 38.3286 35.1761 38.9474 34.7476 39.4711C34.3192 39.9947 33.7797 40.4073 33.1291 40.7088C32.4785 41.0103 31.7169 41.161 30.8442 41.161C30.1618 41.161 29.4557 40.9864 28.7258 40.6374C27.9959 40.2883 27.385 39.7329 26.8931 38.9712L28.2736 37.3289H28.5116C28.6385 38.281 28.9083 39.0426 29.3209 39.6139C29.7334 40.1693 30.2412 40.4469 30.8442 40.4469C31.3519 40.4469 31.7804 40.3041 32.1294 40.0185C32.4785 39.717 32.7562 39.3283 32.9625 38.8522C33.1688 38.3603 33.3116 37.8129 33.3909 37.2099C33.4703 36.5911 33.502 35.9643 33.4861 35.3296C33.4703 34.7266 33.4068 34.1474 33.2957 33.5921C33.2005 33.0367 33.0577 32.5448 32.8673 32.1164C32.6769 31.6721 32.4309 31.323 32.1294 31.0691C31.8438 30.7993 31.4947 30.6645 31.0822 30.6645V29.9504Z" fill="white"/>
<path d="M37.3143 40.3041L39.5755 25.8803C39.6231 25.5154 39.5517 25.2218 39.3612 24.9997C39.1708 24.7775 38.9646 24.6426 38.7424 24.595V24.238H41.789L44.0502 40.3041H45.145V43.7792H44.431C44.431 43.3349 44.3993 42.9382 44.3358 42.5891C44.2882 42.24 44.193 41.9385 44.0502 41.6846C43.9074 41.4307 43.709 41.2324 43.4551 41.0896C43.2171 40.9626 42.8998 40.8992 42.5031 40.8992H38.6234C38.2267 40.8992 37.9014 40.9626 37.6475 41.0896C37.4095 41.2324 37.2191 41.4307 37.0763 41.6846C36.9335 41.9385 36.8303 42.24 36.7669 42.5891C36.7193 42.9382 36.6955 43.3349 36.6955 43.7792H35.9814V40.3041H37.3143ZM41.6224 40.3041L40.0515 28.2129H39.9563L38.0284 40.3041H41.6224Z" fill="white"/>
<path d="M49.1811 29.7124V38.9712C49.1811 39.4314 49.2366 39.7964 49.3477 40.0661C49.4588 40.3359 49.5619 40.5342 49.6571 40.6612V40.8992H46.3249V40.6612C46.4201 40.5342 46.5233 40.3359 46.6343 40.0661C46.7454 39.7964 46.8009 39.4314 46.8009 38.9712V26.166C46.8009 25.7058 46.7454 25.3408 46.6343 25.0711C46.5233 24.8013 46.4201 24.603 46.3249 24.476V24.238H49.6571V24.476C49.5619 24.603 49.4588 24.8013 49.3477 25.0711C49.2366 25.3408 49.1811 25.7058 49.1811 26.166V28.9983H51.7993V26.166C51.7993 25.7058 51.7437 25.3408 51.6327 25.0711C51.5216 24.8013 51.4185 24.603 51.3232 24.476V24.238H54.6555V24.476C54.5603 24.603 54.4571 24.8013 54.3461 25.0711C54.235 25.3408 54.1794 25.7058 54.1794 26.166V38.9712C54.1794 39.4314 54.235 39.7964 54.3461 40.0661C54.4571 40.3359 54.5603 40.5342 54.6555 40.6612V40.8992H51.3232V40.6612C51.4185 40.5342 51.5216 40.3359 51.6327 40.0661C51.7437 39.7964 51.7993 39.4314 51.7993 38.9712V29.7124H49.1811Z" fill="white"/>
<path d="M64.6447 38.9712C64.6447 39.4314 64.7003 39.7964 64.8113 40.0661C64.9224 40.3359 65.0256 40.5342 65.1208 40.6612V40.8992H61.7885V40.6612C61.8838 40.5342 61.9869 40.3359 62.098 40.0661C62.209 39.7964 62.2646 39.4314 62.2646 38.9712V29.403H62.1218L59.4084 38.162V38.9712C59.4084 39.4314 59.4639 39.7964 59.575 40.0661C59.6861 40.3359 59.7892 40.5342 59.8844 40.6612V40.8992H56.5522V40.6612C56.6474 40.5342 56.7505 40.3359 56.8616 40.0661C56.9727 39.7964 57.0282 39.4314 57.0282 38.9712V26.166C57.0282 25.7058 56.9727 25.3408 56.8616 25.0711C56.7505 24.8013 56.6474 24.603 56.5522 24.476V24.238H59.8844V24.476C59.7892 24.603 59.6861 24.8013 59.575 25.0711C59.4639 25.3408 59.4084 25.7058 59.4084 26.166V35.401H59.5036L62.2646 26.6182V26.166C62.2646 25.7058 62.209 25.3408 62.098 25.0711C61.9869 24.8013 61.8838 24.603 61.7885 24.476V24.238H65.1208V24.476C65.0256 24.603 64.9224 24.8013 64.8113 25.0711C64.7003 25.3408 64.6447 25.7058 64.6447 26.166V38.9712Z" fill="white"/>
<path d="M70.8434 30.5931C71.8907 30.6089 72.6761 30.839 73.1998 31.2833C73.7234 31.7117 74.0884 32.3226 74.2946 33.116C74.5009 33.9094 74.6041 34.8853 74.6041 36.0436C74.6041 37.1861 74.6041 38.4873 74.6041 39.9471C74.6041 40.0423 74.6279 40.1217 74.6755 40.1851C74.7389 40.2327 74.8024 40.2565 74.8659 40.2565C74.9452 40.2565 75.0087 40.2327 75.0563 40.1851C75.1198 40.1217 75.1515 40.0423 75.1515 39.9471H75.8655C75.8655 40.3121 75.6751 40.6056 75.2943 40.8278C74.9135 41.034 74.493 41.1213 74.0328 41.0896C73.5885 41.0737 73.176 40.915 72.7951 40.6136C72.4143 40.3121 72.2239 39.844 72.2239 39.2093C72.2239 38.1144 72.2318 37.1147 72.2477 36.2103C72.2636 35.2899 72.2239 34.4886 72.1287 33.8063C72.0493 33.124 71.8748 32.5686 71.605 32.1402C71.3512 31.6959 70.9386 31.4182 70.3674 31.3071H69.8913V38.9712C69.8913 39.4314 69.9469 39.7964 70.0579 40.0661C70.169 40.3359 70.2722 40.5342 70.3674 40.6612V40.8992H67.0351V40.6612C67.1303 40.5342 67.2335 40.3359 67.3446 40.0661C67.4556 39.7964 67.5112 39.4314 67.5112 38.9712V26.166C67.5112 25.7058 67.4556 25.3408 67.3446 25.0711C67.2335 24.8013 67.1303 24.603 67.0351 24.476V24.238H70.3674V24.476C70.2722 24.603 70.169 24.8013 70.0579 25.0711C69.9469 25.3408 69.8913 25.7058 69.8913 26.166V30.5931H70.0341L71.9621 26.1898C72.1208 25.8089 72.208 25.5154 72.2239 25.3091C72.2556 25.1028 72.2398 24.9521 72.1763 24.8569C72.1128 24.7458 72.0256 24.6664 71.9145 24.6188C71.8193 24.5712 71.7241 24.5236 71.6289 24.476V24.238H74.3898V24.476C74.1994 24.5554 74.0249 24.6426 73.8662 24.7379C73.7075 24.8331 73.5489 24.9679 73.3902 25.1425C73.2474 25.3012 73.0966 25.5154 72.9379 25.7851C72.7951 26.0549 72.6365 26.396 72.4619 26.8086L70.8434 30.5931Z" fill="white"/>
<path d="M76.3326 32.5686C76.3326 31.4261 76.4199 30.3392 76.5945 29.3078C76.7849 28.2605 77.0705 27.3481 77.4513 26.5706C77.848 25.7772 78.3479 25.1504 78.9508 24.6902C79.5538 24.2301 80.2679 24 81.093 24C81.934 24 82.648 24.2301 83.2351 24.6902C83.8381 25.1504 84.33 25.7772 84.7108 26.5706C85.1075 27.3481 85.3931 28.2605 85.5677 29.3078C85.7581 30.3392 85.8533 31.4261 85.8533 32.5686C85.8533 33.7111 85.7581 34.806 85.5677 35.8532C85.3931 36.8846 85.1075 37.797 84.7108 38.5904C84.33 39.3679 83.8381 39.9868 83.2351 40.4469C82.648 40.9071 81.934 41.1372 81.093 41.1372C80.2679 41.1372 79.5538 40.9071 78.9508 40.4469C78.3479 39.9868 77.848 39.3679 77.4513 38.5904C77.0705 37.797 76.7849 36.8846 76.5945 35.8532C76.4199 34.806 76.3326 33.7111 76.3326 32.5686ZM78.9508 32.5686C78.9508 33.6476 78.9667 34.6631 78.9984 35.6152C79.0302 36.5673 79.1174 37.4003 79.2603 38.1144C79.4031 38.8284 79.6173 39.3917 79.9029 39.8043C80.1885 40.2169 80.5852 40.4231 81.093 40.4231C81.6007 40.4231 81.9974 40.2169 82.2831 39.8043C82.5687 39.3917 82.7829 38.8284 82.9257 38.1144C83.0685 37.4003 83.1558 36.5673 83.1875 35.6152C83.2193 34.6631 83.2351 33.6476 83.2351 32.5686C83.2351 31.4896 83.2193 30.4741 83.1875 29.522C83.1558 28.5699 83.0685 27.7369 82.9257 27.0228C82.7829 26.3088 82.5687 25.7455 82.2831 25.3329C81.9974 24.9203 81.6007 24.7141 81.093 24.7141C80.5852 24.7141 80.1885 24.9203 79.9029 25.3329C79.6173 25.7455 79.4031 26.3088 79.2603 27.0228C79.1174 27.7369 79.0302 28.5699 78.9984 29.522C78.9667 30.4741 78.9508 31.4896 78.9508 32.5686Z" fill="white"/>
<path d="M90.1367 24.238C90.8666 24.238 91.4775 24.3332 91.9694 24.5236C92.4613 24.714 92.858 24.96 93.1595 25.2615C93.461 25.563 93.6752 25.9041 93.8021 26.285C93.9449 26.6499 94.0164 27.0069 94.0164 27.356C94.0164 27.9431 93.8656 28.5223 93.5641 29.0936C93.2626 29.6648 92.7152 30.1329 91.9218 30.4979V30.6883C92.3026 30.8628 92.6755 31.085 93.0405 31.3547C93.4054 31.6086 93.7228 31.926 93.9926 32.3068C94.2782 32.6876 94.5083 33.1398 94.6828 33.6635C94.8573 34.1871 94.9446 34.806 94.9446 35.52C94.9446 36.1864 94.8494 36.845 94.659 37.4955C94.4845 38.1303 94.1988 38.7015 93.8021 39.2093C93.4054 39.717 92.9056 40.1296 92.3026 40.4469C91.6997 40.7484 90.9777 40.8992 90.1367 40.8992H87.2805V40.6612C87.3757 40.5342 87.4788 40.3359 87.5899 40.0661C87.701 39.7964 87.7565 39.4314 87.7565 38.9712V26.166C87.7565 25.7058 87.701 25.3408 87.5899 25.0711C87.4788 24.8013 87.3757 24.603 87.2805 24.476V24.238H90.1367ZM90.1367 30.1884C90.581 30.1726 90.9301 30.0932 91.184 29.9504C91.4378 29.7917 91.6283 29.5855 91.7552 29.3316C91.898 29.0777 91.9853 28.7841 92.017 28.4509C92.0488 28.1018 92.0646 27.7369 92.0646 27.356C92.0646 26.9752 92.0329 26.634 91.9694 26.3326C91.9218 26.0311 91.8266 25.7772 91.6838 25.5709C91.541 25.3646 91.3426 25.2139 91.0888 25.1187C90.8507 25.0076 90.5334 24.9521 90.1367 24.9521V30.1884ZM90.1367 40.1851C90.6445 40.1851 91.0411 40.0582 91.3268 39.8043C91.6283 39.5504 91.8504 39.2093 91.9932 38.7808C92.136 38.3524 92.2233 37.8605 92.255 37.3051C92.2868 36.7339 92.3026 36.1388 92.3026 35.52C92.3026 34.9012 92.2868 34.314 92.255 33.7587C92.2233 33.2033 92.136 32.7114 91.9932 32.283C91.8504 31.8545 91.6283 31.5213 91.3268 31.2833C91.0411 31.0294 90.6445 30.9025 90.1367 30.9025V40.1851Z" fill="white"/>
</svg>
