<svg width="45" height="44" viewBox="0 0 45 44" fill="none" xmlns="http://www.w3.org/2000/svg">
<path d="M36.8799 26.2907C36.411 25.6659 36.6236 24.1012 36.8799 23.4604C37.5192 21.7508 46.4167 10.7242 42.5373 10.7242C39.8716 10.759 36.6068 10.7242 34.0512 10.7242C33.5767 10.8376 34.2433 11.6419 34.0512 12.1394C32.5567 15.5232 29.6596 19.3913 26.9794 22.0453C26.6268 22.3245 27.381 22.1485 26.9794 22.0453C25.0993 20.1016 26.7083 13.3554 25.565 10.7242C25.3396 10.2092 24.6553 9.44008 24.1507 9.30908C21.5982 8.71174 15.2013 9.52179 14.2501 10.7242C13.9782 11.068 14.0539 10.6934 14.2501 10.7242C15.1564 10.8646 16.7013 11.6084 17.0789 12.1394C17.7912 13.6798 17.7625 22.0453 15.6645 22.0453C13.5665 22.0453 10.9365 14.3718 10.0071 12.1394C9.75975 11.4672 7.84177 10.838 7.17836 10.7242H1.52092C0.429904 10.7242 -0.280135 11.0746 0.106566 12.1394C3.33938 20.0194 10.4715 36.579 21.3219 36.1967C22.4089 36.1967 24.7161 37.122 25.565 36.1967C26.7316 34.6768 24.9789 31.5684 26.9794 30.5361C27.4839 30.2725 27.9603 30.212 28.3937 30.5361C30.6189 32.1998 32.7215 35.3102 35.4655 36.1967C35.948 36.3527 35.1025 36.2747 35.4655 36.1967H42.5373C43.614 36.1967 44.1745 36.0454 43.9517 34.7815C43.1063 32.0711 39.2469 28.9002 36.8799 26.2907Z" fill="white"/>
</svg>
