<svg width="45" height="44" viewBox="0 0 45 44" fill="none" xmlns="http://www.w3.org/2000/svg">
<path d="M11.9783 4.32519C10.9777 2.32692 9.70287 2.41215 8.15217 2.41215C5.38058 2.41215 0.5 5.83467 0.5 11.9774C0.5 17.0114 2.54636 22.8643 10.0652 31.1078C17.3215 39.0635 27.0195 42.7262 34.9348 42.5861C42.85 42.4462 44.5 35.3076 44.5 33.0208C44.5 32.0073 43.0226 31.2453 42.587 31.1078C39.8896 29.8208 36.0667 27.7321 34.9348 27.2817C33.8029 26.8313 33.3891 26.9503 33.0217 27.2817C31.9954 28.254 29.8925 32.3762 29.1957 33.0208C28.4991 33.6655 27.7149 33.2644 27.2826 33.0208C25.6919 32.3863 21.1549 30.5948 17.7174 27.2817C13.4657 23.1846 12.7792 20.8842 11.9783 19.6295C11.3376 18.6256 11.7438 17.9858 11.9783 17.7165C12.8943 16.6659 13.324 14.6965 13.8913 13.8904C14.4583 13.084 14.1616 12.7395 13.8913 11.9774C12.7293 8.69862 12.7789 5.92364 11.9783 4.32519Z" fill="white"/>
</svg>
